<svg t="1684672588922" class="icon" viewBox="0 0 1024 1024" version="1.1" xmlns="http://www.w3.org/2000/svg" p-id="17697" width="200" height="200"><path d="M298.666667 682.666667H213.333333a42.666667 42.666667 0 0 1-42.666666-42.666667v-85.333333a42.666667 42.666667 0 0 1 42.666666-42.666667h85.333334a42.666667 42.666667 0 0 1 42.666666 42.666667v85.333333a42.666667 42.666667 0 0 1-42.666666 42.666667z m298.666666-42.666667V384a42.666667 42.666667 0 0 0-42.666666-42.666667h-85.333334a42.666667 42.666667 0 0 0-42.666666 42.666667v256a42.666667 42.666667 0 0 0 42.666666 42.666667h85.333334a42.666667 42.666667 0 0 0 42.666666-42.666667z m341.333334 192v-42.666667a21.333333 21.333333 0 0 0-21.333334-21.333333h-810.666666a21.333333 21.333333 0 0 0-21.333334 21.333333v42.666667a21.333333 21.333333 0 0 0 21.333334 21.333333h810.666666a21.333333 21.333333 0 0 0 21.333334-21.333333zM853.333333 640V213.333333a42.666667 42.666667 0 0 0-42.666666-42.666666h-85.333334a42.666667 42.666667 0 0 0-42.666666 42.666666v426.666667a42.666667 42.666667 0 0 0 42.666666 42.666667h85.333334a42.666667 42.666667 0 0 0 42.666666-42.666667z" p-id="17698" fill="#8a8a8a"></path></svg>