<svg t="1684672274815" class="icon" viewBox="0 0 1024 1024" version="1.1" xmlns="http://www.w3.org/2000/svg" p-id="11942" width="200" height="200"><path d="M874.666667 821.333333a42.666667 42.666667 0 0 1 3.2 85.226667L874.666667 906.666667H149.333333a42.666667 42.666667 0 0 1-3.2-85.226667L149.333333 821.333333h725.333334zM572.714667 103.914667a128 128 0 0 1 181.034666 0L814.08 164.266667a128 128 0 0 1 0 181.013333L402.112 757.248a85.333333 85.333333 0 0 1-61.44 24.981333l-119.146667-1.536a85.333333 85.333333 0 0 1-84.224-84.224l-1.536-119.125333a85.333333 85.333333 0 0 1 24.981334-61.44zM226.133333 571.157333l-5.034666 5.077334 1.536 119.125333 119.125333 1.557333 3.008-3.029333-118.634667-122.730667zM557.930667 239.36L286.464 510.826667l118.656 122.709333 274.368-274.368-121.557333-119.808z m135.466666-75.093333a42.666667 42.666667 0 0 0-60.330666 0l-14.784 14.741333 121.557333 119.808 13.909333-13.866667a42.666667 42.666667 0 0 0 2.474667-57.642666l-2.474667-2.709334z" fill="#8a8a8a" p-id="11943"></path></svg>